<svg width="31" height="31" viewBox="0 0 31 31" fill="none" xmlns="http://www.w3.org/2000/svg">
<path d="M1 11.0215H29.5587M7.34637 1.50195V4.67514M23.2123 1.50195V4.67514M5.75978 15.7813H8.93297M13.6927 15.7813H16.8659M21.6257 15.7813H24.7989M5.75978 20.5411H8.93297M13.6927 20.5411H16.8659M21.6257 20.5411H24.7989M5.75978 25.3009H8.93297M13.6927 25.3009H16.8659M21.6257 25.3009H24.7989M6.0771 30.0606H24.4816C26.2587 30.0606 27.1474 30.0606 27.8261 29.7148C28.4232 29.4106 28.9087 28.9251 29.2128 28.3281C29.5587 27.6493 29.5587 26.7607 29.5587 24.9835V9.75224C29.5587 7.97508 29.5587 7.08651 29.2128 6.40773C28.9087 5.81065 28.4232 5.32522 27.8261 5.021C27.1474 4.67514 26.2587 4.67514 24.4816 4.67514H6.0771C4.29996 4.67514 3.41137 4.67514 2.73259 5.021C2.13551 5.32522 1.65007 5.81065 1.34586 6.40773C1 7.08651 1 7.97508 1 9.75224V24.9835C1 26.7607 1 27.6493 1.34586 28.3281C1.65007 28.9251 2.13551 29.4106 2.73259 29.7148C3.41137 30.0606 4.29994 30.0606 6.0771 30.0606Z" stroke="#0061BB" stroke-width="1.5" stroke-linecap="round"/>
</svg>
