<svg width="29" height="29" viewBox="0 0 29 29" fill="none" xmlns="http://www.w3.org/2000/svg">
<path d="M28.0827 7.74182e-08H24.2749V0.951956H26.9337L15.9323 11.9533C15.582 11.7038 15.1795 11.5373 14.7553 11.4663V1.62502L16.7987 3.66839L17.4717 2.99533L14.6159 0.139462C14.5717 0.0952524 14.5192 0.0601823 14.4615 0.0362551C14.4037 0.0123279 14.3418 1.25604e-05 14.2793 1.25604e-05C14.2168 1.25604e-05 14.1549 0.0123279 14.0972 0.0362551C14.0394 0.0601823 13.987 0.0952524 13.9428 0.139462L11.0869 2.99533L11.76 3.66836L13.8034 1.62502V11.4663C13.3792 11.5373 12.9767 11.7038 12.6263 11.9533L1.62502 0.951956H4.2838V7.74182e-08H0.475978C0.413462 -3.55874e-05 0.351552 0.0122516 0.293787 0.0361591C0.236023 0.0600666 0.183537 0.0951255 0.139331 0.139331C0.0951255 0.183537 0.0600666 0.236023 0.0361591 0.293787C0.0122516 0.351552 -3.55874e-05 0.413462 7.74182e-08 0.475978V4.2838H0.951956V1.62502L11.9533 12.6263C11.7038 12.9767 11.5373 13.3792 11.4663 13.8034H1.62502L3.66839 11.76L2.99533 11.087L0.139462 13.9428C0.0952524 13.987 0.0601823 14.0395 0.0362551 14.0972C0.0123279 14.155 1.25604e-05 14.2169 1.25604e-05 14.2794C1.25604e-05 14.3419 0.0123279 14.4038 0.0362551 14.4615C0.0601823 14.5192 0.0952524 14.5717 0.139462 14.6159L2.99533 17.4718L3.66836 16.7987L1.62502 14.7553H11.4663C11.5373 15.1795 11.7038 15.582 11.9533 15.9323L0.951956 26.9337V24.2749H7.74182e-08V28.0827C-3.55874e-05 28.1452 0.0122516 28.2071 0.0361591 28.2649C0.0600666 28.3227 0.0951255 28.3751 0.139331 28.4194C0.183537 28.4636 0.236023 28.4986 0.293787 28.5225C0.351552 28.5464 0.413462 28.5587 0.475978 28.5587H4.2838V27.6067H1.62502L12.6263 16.6054C12.9767 16.8549 13.3792 17.0214 13.8034 17.0924V26.9337L11.76 24.8903L11.087 25.5634L13.9428 28.4192C13.987 28.4634 14.0395 28.4985 14.0972 28.5224C14.155 28.5464 14.2169 28.5587 14.2794 28.5587C14.3419 28.5587 14.4038 28.5464 14.4615 28.5224C14.5192 28.4985 14.5717 28.4634 14.6159 28.4192L17.4718 25.5634L16.7987 24.8903L14.7553 26.9337V17.0924C15.1795 17.0214 15.582 16.8548 15.9323 16.6054L26.9337 27.6067H24.2749V28.5587H28.0827C28.1452 28.5587 28.2071 28.5464 28.2649 28.5225C28.3227 28.4986 28.3751 28.4636 28.4194 28.4194C28.4636 28.3751 28.4986 28.3227 28.5225 28.2649C28.5464 28.2071 28.5587 28.1452 28.5587 28.0827V24.2749H27.6067V26.9337L16.6054 15.9323C16.8549 15.582 17.0214 15.1795 17.0924 14.7553H26.9337L24.8903 16.7987L25.5634 17.4717L28.4192 14.6159C28.4634 14.5717 28.4985 14.5192 28.5224 14.4615C28.5464 14.4037 28.5587 14.3418 28.5587 14.2793C28.5587 14.2168 28.5464 14.1549 28.5224 14.0972C28.4985 14.0394 28.4634 13.987 28.4192 13.9428L25.5634 11.0869L24.8903 11.76L26.9337 13.8034H17.0924C17.0214 13.3792 16.8548 12.9767 16.6054 12.6263L27.6067 1.62502V4.2838H28.5587V0.475978C28.5587 0.413462 28.5464 0.351552 28.5225 0.293787C28.4986 0.236023 28.4636 0.183537 28.4194 0.139331C28.3751 0.0951255 28.3227 0.0600666 28.2649 0.0361591C28.2071 0.0122516 28.1452 -3.55874e-05 28.0827 7.74182e-08Z" fill="#0061BB"/>
</svg>
