<svg width="78" height="78" viewBox="0 0 78 78" fill="none" xmlns="http://www.w3.org/2000/svg">
<g filter="url(#filter0_d_158_176)">
<path d="M38.6636 62.3271C51.7326 62.3271 62.3271 51.7326 62.3271 38.6636C62.3271 25.5945 51.7326 15 38.6636 15C25.5945 15 15 25.5945 15 38.6636C15 51.7326 25.5945 62.3271 38.6636 62.3271Z" fill="white"/>
</g>
<path d="M36.3793 22.7943C36.4562 23.2337 36.5309 23.6466 36.599 24.0683C36.6627 24.4242 36.722 24.7778 36.7879 25.1315C36.8296 25.3511 36.9834 25.4697 37.1613 25.4302C37.3392 25.3907 37.4315 25.2325 37.3809 25.0107C37.2345 24.2067 37.0932 23.4013 36.957 22.5945C36.9362 22.5264 36.9317 22.4544 36.9441 22.3843C36.9565 22.3143 36.9853 22.2481 37.0281 22.1913C37.071 22.1345 37.1267 22.0887 37.1907 22.0576C37.2547 22.0265 37.3252 22.011 37.3963 22.0124C38.097 21.9948 38.7999 21.997 39.5006 22.0124C39.5714 22.0119 39.6414 22.028 39.7049 22.0594C39.7684 22.0908 39.8237 22.1366 39.8664 22.1931C39.9091 22.2497 39.9379 22.3154 39.9507 22.3851C39.9635 22.4548 39.9598 22.5265 39.9399 22.5945C39.7935 23.3984 39.6522 24.2038 39.516 25.0107C39.4743 25.2413 39.5731 25.4082 39.762 25.4368C39.9509 25.4654 40.0805 25.3467 40.12 25.1205C40.2474 24.4198 40.3704 23.7169 40.4956 23.014C40.5066 22.9459 40.5242 22.8778 40.5396 22.7943C41.0524 23.0469 41.5112 23.3968 41.8905 23.8245C42.627 24.6297 43.0495 25.6728 43.081 26.7635C43.081 26.8689 43.0964 26.9326 43.2216 26.97C43.3562 27.0068 43.4748 27.0871 43.559 27.1983C43.6432 27.3095 43.6883 27.4455 43.6872 27.585C43.6902 27.7186 43.6487 27.8494 43.5692 27.9568C43.4896 28.0642 43.3766 28.142 43.2479 28.1781C42.9882 28.2491 42.7229 28.2983 42.455 28.3253C40.258 28.5975 38.0388 28.6439 35.8324 28.4637C35.2107 28.4153 34.5913 28.3319 33.9741 28.2572C33.84 28.2402 33.709 28.204 33.5853 28.1495C33.4698 28.1051 33.3716 28.0248 33.3052 27.9205C33.2387 27.8161 33.2076 27.6931 33.2163 27.5697C33.2124 27.4391 33.2519 27.311 33.3286 27.2052C33.4053 27.0995 33.5149 27.0222 33.6402 26.9854C33.8028 26.9348 33.8137 26.8492 33.8225 26.7108C33.9411 24.9777 34.7692 23.6905 36.2761 22.8339C36.3093 22.8177 36.3438 22.8045 36.3793 22.7943Z" fill="#0061BB"/>
<path d="M34.0596 39.3549V33.9887C34.3934 33.9206 34.7185 33.8481 35.059 33.7866C35.0854 33.7851 35.1118 33.7897 35.1362 33.8C35.1605 33.8103 35.1822 33.826 35.1996 33.8459C35.797 34.7245 36.6844 35.1243 37.6949 35.2869C38.6734 35.4563 39.6805 35.302 40.5636 34.8476C41.0153 34.6244 41.4019 34.2885 41.686 33.8723C41.7046 33.8466 41.7286 33.8252 41.7563 33.8097C41.784 33.7941 41.8147 33.7848 41.8464 33.7822C42.1802 33.8415 42.5053 33.914 42.8458 33.9821V39.3483L34.0596 39.3549Z" fill="#0061BB"/>
<path d="M34.2111 28.917C37.0322 29.2706 39.8864 29.2706 42.7074 28.917C42.6898 29.1366 42.6832 29.3321 42.6569 29.5298C42.53 30.683 42.055 31.7702 41.295 32.6467C39.6915 34.4611 37.238 34.4721 35.6257 32.6643C34.7416 31.6516 34.2389 30.3619 34.2045 29.018C34.2023 28.9917 34.2089 28.9653 34.2111 28.917Z" fill="#0061BB"/>
<path d="M44.6357 34.9014C46.0525 35.78 47.1244 37.6075 47.0761 39.3516H44.6357V34.9014Z" fill="#0061BB"/>
<path d="M32.2667 39.3604H29.8505C29.5737 38.1083 30.9861 35.5054 32.2667 34.9014V39.3604Z" fill="#0061BB"/>
<path d="M52.4861 47.6807C50.8403 49.3395 49.1826 50.9864 47.5305 52.6383C46.9386 53.2295 46.3495 53.8236 45.7527 54.4121C44.9487 55.2028 44.1167 55.1944 43.3175 54.396C41.714 52.7947 40.11 51.1931 38.5056 49.5912C37.8774 48.9637 37.8279 48.0426 38.3946 47.4332C39.0054 46.7771 39.9302 46.7234 40.5981 47.3704C41.8196 48.5488 43.0097 49.76 44.2088 50.9606C44.3146 51.083 44.412 51.2123 44.5005 51.3476C45.6669 50.1776 46.7648 49.0752 47.8641 47.9743C48.6775 47.1589 49.4918 46.3455 50.307 45.5338C50.9827 44.8582 51.9124 44.8199 52.5406 45.4418C53.1687 46.0638 53.1548 47.0065 52.4861 47.6807Z" fill="#0A8000"/>
<g filter="url(#filter1_d_158_176)">
<path d="M27 46L34 54M34 46L27 54" stroke="#EB0000" stroke-width="3" stroke-linecap="round"/>
</g>
<defs>
<filter id="filter0_d_158_176" x="0" y="0" width="77.3271" height="77.3271" filterUnits="userSpaceOnUse" color-interpolation-filters="sRGB">
<feFlood flood-opacity="0" result="BackgroundImageFix"/>
<feColorMatrix in="SourceAlpha" type="matrix" values="0 0 0 0 0 0 0 0 0 0 0 0 0 0 0 0 0 0 127 0" result="hardAlpha"/>
<feOffset/>
<feGaussianBlur stdDeviation="7.5"/>
<feComposite in2="hardAlpha" operator="out"/>
<feColorMatrix type="matrix" values="0 0 0 0 0 0 0 0 0 0 0 0 0 0 0 0 0 0 0.25 0"/>
<feBlend mode="normal" in2="BackgroundImageFix" result="effect1_dropShadow_158_176"/>
<feBlend mode="normal" in="SourceGraphic" in2="effect1_dropShadow_158_176" result="shape"/>
</filter>
<filter id="filter1_d_158_176" x="21.5" y="44.5" width="18" height="19" filterUnits="userSpaceOnUse" color-interpolation-filters="sRGB">
<feFlood flood-opacity="0" result="BackgroundImageFix"/>
<feColorMatrix in="SourceAlpha" type="matrix" values="0 0 0 0 0 0 0 0 0 0 0 0 0 0 0 0 0 0 127 0" result="hardAlpha"/>
<feOffset dy="4"/>
<feGaussianBlur stdDeviation="2"/>
<feComposite in2="hardAlpha" operator="out"/>
<feColorMatrix type="matrix" values="0 0 0 0 0 0 0 0 0 0 0 0 0 0 0 0 0 0 0.25 0"/>
<feBlend mode="normal" in2="BackgroundImageFix" result="effect1_dropShadow_158_176"/>
<feBlend mode="normal" in="SourceGraphic" in2="effect1_dropShadow_158_176" result="shape"/>
</filter>
</defs>
</svg>
