<svg width="78" height="78" viewBox="0 0 78 78" fill="none" xmlns="http://www.w3.org/2000/svg">
<g filter="url(#filter0_d_158_161)">
<path d="M38.6636 62.3271C51.7326 62.3271 62.3271 51.7326 62.3271 38.6636C62.3271 25.5945 51.7326 15 38.6636 15C25.5945 15 15 25.5945 15 38.6636C15 51.7326 25.5945 62.3271 38.6636 62.3271Z" fill="white"/>
</g>
<path d="M52.9961 28.6426C52.9538 27.669 52.5398 26.7486 51.8392 26.0711C51.1386 25.3936 50.2049 25.0105 49.2304 25.0009H28.8453C28.2827 24.9886 27.7251 25.1084 27.2173 25.3507C25.8178 26.0504 25.0272 27.1826 25.0135 28.7528C24.9832 32.1687 25.0135 35.5846 25.0135 39.0004C25.0135 42.4163 25.0135 45.8046 25.0135 49.2067C25.0156 49.4293 25.0359 49.6513 25.0741 49.8706C25.2309 50.7465 25.6901 51.5395 26.3718 52.1114C27.0534 52.6833 27.9142 52.9978 28.804 53H49.189C49.4254 52.9992 49.6612 52.9789 49.8943 52.9394C50.7621 52.7804 51.5476 52.3247 52.1165 51.6503C52.6854 50.9759 53.0021 50.1248 53.0126 49.2425V28.8354C52.9988 28.7693 52.9988 28.706 52.9961 28.6426ZM51.5416 39.0059V49.1847C51.5423 49.4943 51.4819 49.8011 51.3638 50.0873C51.2458 50.3735 51.0723 50.6337 50.8535 50.8527C50.6347 51.0718 50.3748 51.2455 50.0887 51.3639C49.8026 51.4823 49.4959 51.5431 49.1863 51.5427H28.8205C28.5098 51.5442 28.202 51.4841 27.9147 51.3658C27.6274 51.2475 27.3665 51.0734 27.1469 50.8536C26.9274 50.6338 26.7536 50.3726 26.6356 50.0852C26.5177 49.7978 26.4579 49.4898 26.4597 49.1792V28.8244C26.4579 28.5138 26.5177 28.2058 26.6356 27.9184C26.7536 27.631 26.9274 27.3699 27.1469 27.15C27.3665 26.9302 27.6274 26.7562 27.9147 26.6379C28.202 26.5196 28.5098 26.4594 28.8205 26.4609H49.1753C49.4866 26.4587 49.7953 26.5184 50.0834 26.6365C50.3715 26.7547 50.6332 26.9289 50.8534 27.149C51.0736 27.3692 51.2478 27.631 51.3659 27.919C51.4841 28.2071 51.5438 28.5158 51.5416 28.8272V39.0059Z" fill="#0061BB"/>
<path d="M48.2776 30.7506C48.1471 30.8428 47.9911 30.892 47.8313 30.8911H30.223C30.0442 30.9047 29.8664 30.8534 29.7222 30.7467C29.5781 30.64 29.4771 30.4849 29.438 30.3098C29.4142 30.2016 29.4153 30.0895 29.4411 29.9817C29.467 29.874 29.5169 29.7735 29.5872 29.6879C29.6574 29.6023 29.7462 29.5337 29.8468 29.4873C29.9474 29.4409 30.0572 29.4179 30.168 29.4201H47.8534C48.0083 29.4178 48.1598 29.4653 48.2857 29.5556C48.4117 29.6458 48.5054 29.774 48.5531 29.9214C48.6023 30.0709 48.602 30.2322 48.5524 30.3816C48.5028 30.5309 48.4065 30.6603 48.2776 30.7506Z" fill="#0061BB"/>
<path d="M47.8337 48.5812H30.1538C29.9978 48.5824 29.8455 48.5339 29.719 48.4426C29.5925 48.3513 29.4984 48.2221 29.4505 48.0736C29.4026 47.9252 29.4032 47.7653 29.4524 47.6173C29.5016 47.4693 29.5968 47.3408 29.724 47.2506C29.854 47.1576 30.0106 47.1093 30.1703 47.1129H47.7813C47.9597 47.0981 48.1374 47.1486 48.2813 47.255C48.4252 47.3614 48.5256 47.5165 48.5637 47.6914C48.588 47.7996 48.5873 47.912 48.5617 48.02C48.5361 48.1279 48.4862 48.2286 48.4158 48.3144C48.3454 48.4002 48.2564 48.4688 48.1556 48.515C48.0547 48.5612 47.9446 48.5839 47.8337 48.5812Z" fill="#0061BB"/>
<path d="M35.5495 44.1107C35.409 44.1695 35.2535 44.1825 35.1051 44.1479C34.9568 44.1133 34.8231 44.0328 34.7231 43.9178L32.6681 41.8656C31.9059 41.0997 31.1419 40.3358 30.3761 39.5736C30.294 39.5028 30.228 39.415 30.1828 39.3164C30.1377 39.2177 30.1143 39.1105 30.1143 39.002C30.1143 38.8935 30.1377 38.7863 30.1828 38.6876C30.228 38.589 30.294 38.5013 30.3761 38.4304L34.7148 34.0917C34.7807 34.0165 34.8612 33.9554 34.9514 33.9122C35.0416 33.8691 35.1396 33.8446 35.2395 33.8405C35.3394 33.8363 35.4391 33.8525 35.5326 33.888C35.626 33.9236 35.7113 33.9777 35.7832 34.0472C35.8551 34.1167 35.9122 34.2 35.9509 34.2922C35.9896 34.3844 36.0092 34.4835 36.0085 34.5835C36.0077 34.6835 35.9867 34.7823 35.9466 34.8739C35.9066 34.9655 35.8483 35.048 35.7754 35.1165C35.365 35.5324 34.949 35.9429 34.5385 36.3561L31.9601 38.9345L31.894 39.0034L32.7011 39.8105C33.7259 40.8335 34.7497 41.8573 35.7727 42.8821C35.8667 42.9652 35.9376 43.0713 35.9787 43.1899C36.0198 43.3085 36.0296 43.4357 36.0072 43.5592C35.9847 43.6827 35.9308 43.7984 35.8507 43.895C35.7705 43.9916 35.6668 44.0659 35.5495 44.1107Z" fill="#0061BB"/>
<path d="M48.5601 34.7448C48.5205 34.8953 48.4345 35.0295 48.3143 35.1284C48.1942 35.2273 48.046 35.2858 47.8907 35.2958H39.0369C38.8702 35.3046 38.7052 35.2577 38.568 35.1625C38.4309 35.0672 38.3293 34.929 38.2794 34.7696C38.2472 34.6608 38.2405 34.546 38.2598 34.4342C38.2792 34.3224 38.324 34.2166 38.3909 34.1249C38.4578 34.0332 38.5449 33.9582 38.6455 33.9057C38.746 33.8532 38.8574 33.8245 38.9708 33.822H47.8135C47.9288 33.817 48.0437 33.8391 48.1489 33.8866C48.2542 33.934 48.3468 34.0055 48.4194 34.0952C48.492 34.185 48.5425 34.2905 48.567 34.4033C48.5914 34.5161 48.589 34.6331 48.5601 34.7448Z" fill="#0061BB"/>
<path d="M47.8528 44.1622H39.0376C38.8899 44.1731 38.7422 44.1395 38.6136 44.0659C38.485 43.9923 38.3814 43.8819 38.3159 43.749C38.2619 43.6405 38.2357 43.5202 38.2396 43.3991C38.2436 43.2779 38.2775 43.1596 38.3384 43.0548C38.3992 42.9499 38.4852 42.8618 38.5885 42.7984C38.6918 42.7349 38.8092 42.6981 38.9302 42.6912C38.9779 42.6884 39.0257 42.6884 39.0734 42.6912H47.8032C47.9028 42.6826 48.0031 42.6944 48.098 42.7257C48.1929 42.7571 48.2805 42.8074 48.3554 42.8736C48.4302 42.9398 48.4909 43.0205 48.5337 43.1109C48.5765 43.2012 48.6004 43.2993 48.6042 43.3992C48.6079 43.499 48.5913 43.5987 48.5554 43.6919C48.5195 43.7852 48.465 43.8702 48.3953 43.9418C48.3255 44.0135 48.242 44.0702 48.1497 44.1085C48.0574 44.1469 47.9583 44.1661 47.8583 44.165L47.8528 44.1622Z" fill="#0061BB"/>
<path d="M48.5608 39.1772C48.5226 39.3305 48.4356 39.4672 48.3128 39.5666C48.19 39.666 48.0383 39.7227 47.8804 39.7282H38.9909C38.8704 39.7311 38.7512 39.7042 38.6437 39.6498C38.5362 39.5954 38.4438 39.5153 38.3748 39.4166C38.3058 39.3178 38.2623 39.2036 38.2482 39.0839C38.2341 38.9643 38.2498 38.843 38.2939 38.731C38.3419 38.5983 38.4283 38.4829 38.5422 38.3995C38.656 38.3161 38.792 38.2685 38.933 38.2626C38.9826 38.2626 39.0349 38.2626 39.0845 38.2626H47.8143C47.929 38.2569 48.0436 38.2781 48.1486 38.3248C48.2536 38.3714 48.3462 38.4421 48.4189 38.5311C48.4915 38.6201 48.5422 38.725 48.5669 38.8372C48.5916 38.9495 48.5895 39.0659 48.5608 39.1772Z" fill="#0061BB"/>
<defs>
<filter id="filter0_d_158_161" x="0" y="0" width="77.3271" height="77.3271" filterUnits="userSpaceOnUse" color-interpolation-filters="sRGB">
<feFlood flood-opacity="0" result="BackgroundImageFix"/>
<feColorMatrix in="SourceAlpha" type="matrix" values="0 0 0 0 0 0 0 0 0 0 0 0 0 0 0 0 0 0 127 0" result="hardAlpha"/>
<feOffset/>
<feGaussianBlur stdDeviation="7.5"/>
<feComposite in2="hardAlpha" operator="out"/>
<feColorMatrix type="matrix" values="0 0 0 0 0 0 0 0 0 0 0 0 0 0 0 0 0 0 0.25 0"/>
<feBlend mode="normal" in2="BackgroundImageFix" result="effect1_dropShadow_158_161"/>
<feBlend mode="normal" in="SourceGraphic" in2="effect1_dropShadow_158_161" result="shape"/>
</filter>
</defs>
</svg>
