<svg width="78" height="78" viewBox="0 0 78 78" fill="none" xmlns="http://www.w3.org/2000/svg">
<g filter="url(#filter0_d_158_172)">
<path d="M38.6636 62.3271C51.7326 62.3271 62.3271 51.7326 62.3271 38.6636C62.3271 25.5945 51.7326 15 38.6636 15C25.5945 15 15 25.5945 15 38.6636C15 51.7326 25.5945 62.3271 38.6636 62.3271Z" fill="white"/>
</g>
<path d="M51.2761 48.9922C51.3117 47.7053 51.2868 46.4183 51.2868 45.1314V41.5408H48.277C48.8119 43.8536 46.9486 42.7524 46.0429 43.2359C46.0429 43.8647 46.264 44.6589 45.9769 45.0946C45.7255 45.4734 44.9071 45.4513 44.2099 45.6462V49.8747H42.8976V34.7237H35.8546V49.8876C35.5229 49.9151 35.3196 49.9409 35.1128 49.9464C33.8736 49.974 33.8647 49.9721 33.8647 48.7348C33.8647 44.0455 33.8677 39.3561 33.8736 34.6667C33.8659 34.3433 33.9325 34.0227 34.068 33.7309C34.2338 33.411 34.5226 33.1591 34.9113 32.6958H37.4165C40.3282 32.6958 43.2417 32.6517 46.1534 32.7363C46.7079 32.751 47.6547 33.1959 47.7207 33.5728C47.9275 34.7476 47.7974 35.9849 47.7974 37.099C47.644 37.2112 47.6191 37.2332 47.5959 37.2461C47.2803 37.4005 46.7044 37.5329 46.6919 37.7112C46.6277 38.5202 46.7186 39.342 46.7686 40.1583C46.7686 40.1969 46.9183 40.2539 46.9968 40.2557C47.8152 40.2557 48.6336 40.2557 49.4556 40.2557V37.3435C48.4214 37.5164 48.261 36.9501 48.3287 36.1099C48.3644 35.4363 48.3644 34.7612 48.3287 34.0876C48.3109 33.4901 48.3287 32.944 49.1133 33.0488V30.9162C48.4464 30.7581 47.8526 30.6845 47.307 30.4768C42.6664 28.7081 38.0275 26.9211 33.3904 25.1157C32.8733 24.9135 32.5381 24.9686 32.128 25.3419C30.9922 26.3751 29.7904 27.3311 28.66 28.3717C27.69 29.267 26.7325 30.1072 25.2972 29.8425C25.2294 29.8296 25.1438 29.9142 25.06 29.9565V33.9809H26.909C27.2835 33.4294 27.5064 32.773 27.7792 32.751C29.0701 32.6388 30.3753 32.7013 31.6608 32.7013C31.7518 33.069 31.7696 33.5195 31.8909 33.5507C32.7485 33.7714 32.4436 34.4589 32.4454 34.9682C32.465 39.4431 32.4579 43.918 32.4579 48.3892C32.4579 50.0567 32.4579 50.0586 30.8353 49.9023C30.7836 49.9023 30.7372 49.8416 30.6748 49.8012C30.6422 49.7226 30.6206 49.6396 30.6106 49.5548C30.5999 48.972 30.5964 48.391 30.5964 47.8082C30.5964 46.1646 30.5964 46.1646 29.0416 46.0856C28.8989 46.0856 28.7581 46.0433 28.4906 46.001V43.0024H25.7215C25.7215 44.7986 25.7554 46.5378 25.7019 48.2752C25.6823 48.9095 26.1299 49.7865 25.0868 50.0953C25.0244 50.1155 25.0083 50.3729 25.0048 50.52C24.9941 50.9796 25.0048 51.4393 25.0048 52H52V50.0549C51.3296 50.0144 51.26 49.5732 51.2761 48.9922ZM32.44 28.8828C32.44 28.9968 32.383 29.1972 32.3241 29.2082C31.5824 29.3626 31.7696 29.962 31.7892 30.4363C31.8106 30.9879 31.6234 31.2011 31.076 31.1846C30.0686 31.1515 29.0576 31.1938 28.0448 31.1607C27.7899 31.1515 27.542 30.9768 27.2906 30.8702C27.4101 30.5797 27.4547 30.2028 27.6615 30.0153C28.7973 28.9839 29.9794 27.993 31.1331 26.9983L32.2029 26.0662L32.4365 26.1655C32.4454 27.0719 32.4489 27.9783 32.44 28.8828ZM33.1675 25.671L46.7472 30.907C46.724 30.9805 46.7026 31.0541 46.6794 31.1294H34.6064C34.5743 30.5558 34.544 30.0263 34.5101 29.3921L33.1675 29.2652V25.671ZM40.8435 35.8176C41.6566 35.8176 41.9133 36.0603 41.9133 36.8986C41.9133 37.737 41.6102 37.9227 40.872 37.9208C40.1339 37.919 39.7362 37.7057 39.9128 36.871C39.7487 36.075 40.0554 35.8249 40.8435 35.8176ZM38.0174 47.7034C37.1865 47.902 37.051 47.4663 37.0207 46.7015C36.9886 45.8116 37.3274 45.6425 38.1048 45.6259C38.9571 45.6076 39.0516 46.0139 39.0729 46.729C39.0961 47.5711 38.7894 47.8634 38.0174 47.7034ZM38.0905 42.3479C38.9089 42.3479 39.0765 42.6807 39.0729 43.4381C39.0729 44.2305 38.8501 44.6129 38.0673 44.3997C37.24 44.5927 37.0421 44.2269 37.0207 43.4308C36.9975 42.5575 37.3042 42.3571 38.0905 42.3479ZM38.0192 41.1713C37.2168 41.1915 37.0242 40.9065 37.0207 40.1141C37.0207 39.2721 37.3113 39 38.0727 39.1563C38.9053 38.9614 39.0533 39.399 39.0765 40.1638C39.1033 41.026 38.7484 41.1529 38.0192 41.1713ZM38.0013 37.9208C37.2311 37.908 36.8673 37.6745 37.0759 36.8747C36.8762 35.9794 37.3006 35.8305 38.0388 35.8231C38.777 35.8158 39.0801 36.007 39.0819 36.8361C39.0836 37.6653 38.7948 37.9355 38.0013 37.9208ZM40.9184 39.1103C41.7404 39.0791 41.9098 39.4192 41.908 40.1822C41.908 41.0132 41.6067 41.3128 40.8685 41.1143C39.9573 41.3349 39.9038 40.822 39.8664 40.0976C39.82 39.2114 40.2141 39.1361 40.9184 39.1103ZM41.9062 43.4308C41.883 44.2011 41.7118 44.624 40.9202 44.3942C40.0928 44.578 39.8504 44.2416 39.8664 43.4363C39.8753 42.7009 40.0037 42.3332 40.831 42.3479C41.6191 42.3571 41.9312 42.5685 41.9062 43.4308ZM40.8221 47.7531C39.9859 47.7531 39.7701 47.4166 39.9092 46.65C39.7202 45.7877 40.1499 45.6388 40.8881 45.6223C41.6726 45.6076 41.9044 45.876 41.9133 46.6739C41.9222 47.5472 41.6102 47.7457 40.8221 47.7531Z" fill="#0061BB"/>
<defs>
<filter id="filter0_d_158_172" x="0" y="0" width="77.3271" height="77.3271" filterUnits="userSpaceOnUse" color-interpolation-filters="sRGB">
<feFlood flood-opacity="0" result="BackgroundImageFix"/>
<feColorMatrix in="SourceAlpha" type="matrix" values="0 0 0 0 0 0 0 0 0 0 0 0 0 0 0 0 0 0 127 0" result="hardAlpha"/>
<feOffset/>
<feGaussianBlur stdDeviation="7.5"/>
<feComposite in2="hardAlpha" operator="out"/>
<feColorMatrix type="matrix" values="0 0 0 0 0 0 0 0 0 0 0 0 0 0 0 0 0 0 0.25 0"/>
<feBlend mode="normal" in2="BackgroundImageFix" result="effect1_dropShadow_158_172"/>
<feBlend mode="normal" in="SourceGraphic" in2="effect1_dropShadow_158_172" result="shape"/>
</filter>
</defs>
</svg>
