<svg width="78" height="78" viewBox="0 0 78 78" fill="none" xmlns="http://www.w3.org/2000/svg">
<g filter="url(#filter0_d_158_213)">
<path d="M38.6636 62.3271C51.7326 62.3271 62.3271 51.7326 62.3271 38.6636C62.3271 25.5945 51.7326 15 38.6636 15C25.5945 15 15 25.5945 15 38.6636C15 51.7326 25.5945 62.3271 38.6636 62.3271Z" fill="white"/>
</g>
<path d="M36.3793 20.7943C36.4562 21.2337 36.5309 21.6466 36.599 22.0683C36.6627 22.4242 36.722 22.7778 36.7879 23.1315C36.8296 23.3511 36.9834 23.4697 37.1613 23.4302C37.3392 23.3907 37.4315 23.2325 37.3809 23.0107C37.2345 22.2067 37.0932 21.4013 36.957 20.5945C36.9362 20.5264 36.9317 20.4544 36.9441 20.3843C36.9565 20.3143 36.9853 20.2481 37.0281 20.1913C37.071 20.1345 37.1267 20.0887 37.1907 20.0576C37.2547 20.0265 37.3252 20.011 37.3963 20.0124C38.097 19.9948 38.7999 19.997 39.5006 20.0124C39.5714 20.0119 39.6414 20.028 39.7049 20.0594C39.7684 20.0908 39.8237 20.1366 39.8664 20.1931C39.9091 20.2497 39.9379 20.3154 39.9507 20.3851C39.9635 20.4548 39.9598 20.5265 39.9399 20.5945C39.7935 21.3984 39.6522 22.2038 39.516 23.0107C39.4743 23.2413 39.5731 23.4082 39.762 23.4368C39.9509 23.4654 40.0805 23.3467 40.12 23.1205C40.2474 22.4198 40.3704 21.7169 40.4956 21.014C40.5066 20.9459 40.5242 20.8778 40.5396 20.7943C41.0524 21.0469 41.5112 21.3968 41.8905 21.8245C42.627 22.6297 43.0495 23.6728 43.081 24.7635C43.081 24.8689 43.0964 24.9326 43.2216 24.97C43.3562 25.0068 43.4748 25.0871 43.559 25.1983C43.6432 25.3095 43.6883 25.4455 43.6872 25.585C43.6902 25.7186 43.6487 25.8494 43.5692 25.9568C43.4896 26.0642 43.3766 26.142 43.2479 26.1781C42.9882 26.2491 42.7229 26.2983 42.455 26.3253C40.258 26.5975 38.0388 26.6439 35.8324 26.4637C35.2107 26.4153 34.5913 26.3319 33.9741 26.2572C33.84 26.2402 33.709 26.204 33.5853 26.1495C33.4698 26.1051 33.3716 26.0248 33.3052 25.9205C33.2387 25.8161 33.2076 25.6931 33.2163 25.5697C33.2124 25.4391 33.2519 25.311 33.3286 25.2052C33.4053 25.0995 33.5149 25.0222 33.6402 24.9854C33.8028 24.9348 33.8137 24.8492 33.8225 24.7108C33.9411 22.9777 34.7692 21.6905 36.2761 20.8339C36.3093 20.8177 36.3438 20.8045 36.3793 20.7943Z" fill="#0061BB"/>
<path d="M34.0596 37.3549V31.9887C34.3934 31.9206 34.7185 31.8481 35.059 31.7866C35.0854 31.7851 35.1118 31.7897 35.1362 31.8C35.1605 31.8103 35.1822 31.826 35.1996 31.8459C35.797 32.7245 36.6844 33.1243 37.6949 33.2869C38.6734 33.4563 39.6805 33.302 40.5636 32.8476C41.0153 32.6244 41.4019 32.2885 41.686 31.8723C41.7046 31.8466 41.7286 31.8252 41.7563 31.8097C41.784 31.7941 41.8147 31.7848 41.8464 31.7822C42.1802 31.8415 42.5053 31.914 42.8458 31.9821V37.3483L34.0596 37.3549Z" fill="#0061BB"/>
<path d="M34.2111 26.917C37.0322 27.2706 39.8864 27.2706 42.7074 26.917C42.6898 27.1366 42.6832 27.3321 42.6569 27.5298C42.53 28.683 42.055 29.7702 41.295 30.6467C39.6915 32.4611 37.238 32.4721 35.6257 30.6643C34.7416 29.6516 34.2389 28.3619 34.2045 27.018C34.2023 26.9917 34.2089 26.9653 34.2111 26.917Z" fill="#0061BB"/>
<path d="M44.6357 32.9014C46.0525 33.78 47.1244 35.6075 47.0761 37.3516H44.6357V32.9014Z" fill="#0061BB"/>
<path d="M32.2667 37.3604H29.8505C29.5737 36.1083 30.9861 33.5054 32.2667 32.9014V37.3604Z" fill="#0061BB"/>
<path d="M24.6386 40.7944L24.7658 41.5031C24.7992 41.7 24.8325 41.8968 24.8718 42.0937C24.893 42.2148 24.9778 42.2814 25.0778 42.2602C25.1021 42.2544 25.125 42.2436 25.1449 42.2284C25.1648 42.2132 25.1813 42.1939 25.1933 42.1719C25.2053 42.15 25.2125 42.1257 25.2145 42.1007C25.2166 42.0758 25.2133 42.0507 25.205 42.027C25.1293 41.5788 25.0505 41.1185 24.9688 40.6854C24.958 40.6475 24.9561 40.6076 24.9634 40.5689C24.9706 40.5302 24.9868 40.4936 25.0106 40.4622C25.0344 40.4308 25.0651 40.4053 25.1004 40.3878C25.1358 40.3703 25.1747 40.3613 25.2141 40.3614C25.6017 40.3614 25.9924 40.3614 26.38 40.3614C26.4196 40.3606 26.4589 40.3693 26.4945 40.3866C26.5302 40.4039 26.5612 40.4294 26.5851 40.461C26.609 40.4926 26.6252 40.5294 26.6321 40.5684C26.6391 40.6074 26.6368 40.6475 26.6253 40.6854L26.3891 42.024C26.3679 42.1512 26.4224 42.2451 26.5254 42.2602C26.6283 42.2754 26.7041 42.2118 26.7253 42.0846C26.798 41.6939 26.8646 41.3032 26.9342 40.9156C26.9342 40.8762 26.9342 40.8368 26.9584 40.7914C27.2434 40.932 27.4984 41.1263 27.7095 41.3638C28.1194 41.8104 28.3539 42.3902 28.3697 42.9961C28.3697 43.0567 28.3697 43.09 28.4485 43.1112C28.5234 43.1318 28.5895 43.1765 28.6365 43.2383C28.6836 43.3001 28.709 43.3757 28.7089 43.4534C28.7098 43.5277 28.6863 43.6003 28.642 43.6599C28.5977 43.7195 28.535 43.763 28.4636 43.7835C28.3187 43.823 28.1709 43.8504 28.0215 43.8653C26.8007 44.0162 25.5678 44.0415 24.3419 43.941C23.9966 43.9138 23.6544 43.8683 23.3091 43.8259C23.235 43.8175 23.1626 43.7981 23.0941 43.7684C23.0303 43.7426 22.9761 43.6975 22.9392 43.6394C22.9023 43.5813 22.8844 43.5131 22.8882 43.4444C22.886 43.3718 22.908 43.3006 22.9508 43.2419C22.9936 43.1832 23.0547 43.1404 23.1244 43.1203C23.2153 43.093 23.2213 43.0446 23.2274 42.9689C23.2449 42.5214 23.3801 42.0864 23.6194 41.7078C23.8587 41.3293 24.1935 41.0205 24.5902 40.8126L24.6386 40.7944Z" fill="#0061BB"/>
<path d="M23.3613 49.9995V47.0164C23.5461 46.9771 23.7308 46.9377 23.9155 46.9044C23.9303 46.9038 23.945 46.9064 23.9586 46.9122C23.9723 46.918 23.9844 46.9267 23.9943 46.9377C24.1548 47.1625 24.3616 47.3502 24.6009 47.4881C24.8402 47.6261 25.1064 47.711 25.3813 47.7372C25.9242 47.8337 26.4837 47.7497 26.9743 47.498C27.2247 47.3729 27.4393 47.1864 27.5982 46.9559C27.6086 46.9412 27.6222 46.929 27.6379 46.9201C27.6536 46.9112 27.671 46.9059 27.689 46.9044C27.8737 46.9377 28.0585 46.9801 28.2432 47.0164V49.9995H23.3613Z" fill="#0061BB"/>
<path d="M23.4465 44.1953C25.0141 44.3922 26.6002 44.3922 28.1679 44.1953C28.1679 44.3134 28.1679 44.4255 28.1376 44.5375C28.0679 45.1772 27.8048 45.7804 27.3835 46.2668C27.1936 46.502 26.9534 46.6917 26.6807 46.822C26.4079 46.9524 26.1095 47.02 25.8072 47.02C25.5049 47.02 25.2064 46.9524 24.9337 46.822C24.6609 46.6917 24.4208 46.502 24.2309 46.2668C23.7399 45.7026 23.4605 44.9853 23.4404 44.2377C23.4404 44.2377 23.4435 44.2226 23.4465 44.1953Z" fill="#0061BB"/>
<path d="M29.2354 47.5225C29.6487 47.7896 29.989 48.1553 30.2259 48.5867C30.4627 49.0181 30.5886 49.5016 30.5921 49.9937H29.2354V47.5225Z" fill="#0061BB"/>
<path d="M22.3643 49.9997H21.0197C20.8652 49.3032 21.6496 47.8556 22.3643 47.5225V49.9997Z" fill="#0061BB"/>
<path d="M37.4787 40.7944L37.6029 41.5031C37.6393 41.6999 37.6726 41.8968 37.7089 42.0936C37.7331 42.2148 37.8179 42.2814 37.9179 42.2602C38.0178 42.239 38.0663 42.1512 38.0451 42.027L37.8088 40.6854C37.7981 40.6477 37.7962 40.6081 37.8033 40.5696C37.8104 40.5311 37.8263 40.4947 37.8498 40.4634C37.8732 40.432 37.9036 40.4065 37.9385 40.3888C37.9734 40.3711 38.012 40.3617 38.0511 40.3613C38.4418 40.3613 38.8294 40.3613 39.2201 40.3613C39.2595 40.3612 39.2984 40.3703 39.3337 40.3878C39.369 40.4053 39.3998 40.4308 39.4236 40.4622C39.4474 40.4936 39.4635 40.5301 39.4708 40.5688C39.478 40.6076 39.4762 40.6475 39.4654 40.6854L39.2292 42.024C39.205 42.1512 39.2595 42.245 39.3655 42.2602C39.4715 42.2753 39.5411 42.2117 39.5654 42.0845L39.7743 40.9155C39.7743 40.8762 39.7743 40.8368 39.7985 40.7914C40.0835 40.9319 40.3385 41.1263 40.5496 41.3638C40.9584 41.8111 41.1927 42.3904 41.2098 42.9961C41.2098 43.0567 41.2098 43.09 41.2886 43.1112C41.3635 43.1314 41.4294 43.1761 41.4761 43.2381C41.5227 43.3 41.5473 43.3758 41.546 43.4534C41.5481 43.5275 41.5254 43.6003 41.4815 43.6601C41.4377 43.7199 41.3751 43.7633 41.3037 43.7835C41.1588 43.823 41.0109 43.8503 40.8615 43.8653C39.6408 44.0161 38.4079 44.0415 37.182 43.941C36.8367 43.9137 36.4915 43.8683 36.1492 43.8259C36.0751 43.8175 36.0027 43.7981 35.9342 43.7684C35.8698 43.7433 35.8151 43.6984 35.7781 43.6401C35.741 43.5818 35.7236 43.5132 35.7283 43.4443C35.7261 43.3717 35.7481 43.3005 35.7909 43.2418C35.8337 43.1832 35.8948 43.1404 35.9645 43.1203C36.0554 43.093 36.0614 43.0445 36.0645 42.9688C36.0826 42.5215 36.2181 42.0868 36.4573 41.7083C36.6965 41.3298 37.031 41.0209 37.4273 40.8126L37.4787 40.7944Z" fill="#0061BB"/>
<path d="M36.1953 49.9995V47.0164C36.38 46.9771 36.5648 46.9377 36.7525 46.9044C36.7673 46.9038 36.782 46.9064 36.7957 46.9122C36.8093 46.918 36.8214 46.9267 36.8313 46.9377C36.9912 47.1624 37.1975 47.3501 37.4363 47.4881C37.6751 47.626 37.9408 47.711 38.2153 47.7372C38.7592 47.8337 39.3196 47.7497 39.8113 47.498C40.0617 47.3729 40.2764 47.1864 40.4352 46.9559C40.4447 46.941 40.4576 46.9285 40.4729 46.9196C40.4882 46.9106 40.5053 46.9054 40.523 46.9044C40.7108 46.9377 40.8925 46.9801 41.0802 47.0164V49.9995H36.1953Z" fill="#0061BB"/>
<path d="M36.2814 44.1953C37.849 44.3922 39.4351 44.3922 41.0027 44.1953C41.0027 44.3134 41.0027 44.4255 40.9755 44.5375C40.9047 45.1775 40.6406 45.7807 40.2184 46.2668C40.0291 46.5024 39.7893 46.6926 39.5168 46.8232C39.2442 46.9539 38.9458 47.0217 38.6436 47.0217C38.3413 47.0217 38.0429 46.9539 37.7704 46.8232C37.4978 46.6926 37.258 46.5024 37.0688 46.2668C36.5765 45.7034 36.2968 44.9856 36.2783 44.2377C36.2783 44.2377 36.2814 44.2226 36.2814 44.1953Z" fill="#0061BB"/>
<path d="M42.0742 47.5225C42.4868 47.7904 42.8266 48.1563 43.0633 48.5875C43.3 49.0187 43.4264 49.5018 43.431 49.9937H42.0742V47.5225Z" fill="#0061BB"/>
<path d="M35.2002 49.9997H33.8556C33.7011 49.3032 34.4855 47.8556 35.2002 47.5225V49.9997Z" fill="#0061BB"/>
<path d="M50.318 40.7944L50.4422 41.5031C50.4785 41.7 50.5118 41.8968 50.5482 42.0937C50.5491 42.1187 50.5554 42.1433 50.5666 42.1658C50.5778 42.1882 50.5937 42.208 50.6133 42.2238C50.6328 42.2396 50.6555 42.251 50.6798 42.2573C50.7041 42.2636 50.7294 42.2646 50.7541 42.2602C50.8571 42.239 50.9056 42.1512 50.8844 42.027L50.6481 40.6854C50.6368 40.6477 50.6344 40.6079 50.6412 40.5691C50.648 40.5304 50.6639 40.4937 50.6874 40.4622C50.711 40.4307 50.7417 40.4051 50.7769 40.3876C50.8122 40.3701 50.851 40.3611 50.8904 40.3614C51.2781 40.3614 51.6687 40.3614 52.0564 40.3614C52.096 40.3606 52.1352 40.3693 52.1709 40.3866C52.2065 40.4039 52.2376 40.4294 52.2615 40.461C52.2854 40.4926 52.3015 40.5294 52.3085 40.5684C52.3155 40.6074 52.3131 40.6475 52.3017 40.6854L52.0655 42.024C52.0443 42.1512 52.0988 42.2451 52.2048 42.2602C52.3108 42.2754 52.3804 42.2118 52.4016 42.0846C52.4743 41.6939 52.5409 41.3032 52.6106 40.9156C52.6106 40.8762 52.6257 40.8368 52.6348 40.7914C52.9203 40.9311 53.1755 41.1256 53.3859 41.3638C53.7955 41.8108 54.0309 42.3901 54.0491 42.9961C54.0491 43.0567 54.0491 43.09 54.1248 43.1112C54.2003 43.1309 54.267 43.1753 54.3142 43.2373C54.3614 43.2994 54.3864 43.3755 54.3853 43.4534C54.3867 43.5279 54.3634 43.6006 54.319 43.6604C54.2746 43.7201 54.2116 43.7634 54.14 43.7835C53.9997 43.8183 53.8569 43.8415 53.7129 43.8532C52.4912 44.004 51.2572 44.0294 50.0303 43.9289C49.6881 43.9017 49.3429 43.8562 48.9976 43.8138C48.9236 43.805 48.8512 43.7856 48.7826 43.7563C48.7188 43.7305 48.6646 43.6854 48.6277 43.6273C48.5907 43.5692 48.5729 43.501 48.5767 43.4322C48.575 43.3598 48.5972 43.2888 48.6399 43.2302C48.6826 43.1717 48.7434 43.1288 48.8129 43.1082C48.9037 43.0809 48.9098 43.0325 48.9158 42.9568C48.934 42.5094 49.0695 42.0747 49.3087 41.6962C49.5479 41.3178 49.8824 41.0089 50.2787 40.8005L50.318 40.7944Z" fill="#0061BB"/>
<path d="M49.0332 49.9996V47.0166C49.2179 46.9772 49.4027 46.9379 49.5874 46.9045C49.6022 46.9035 49.6171 46.9059 49.6308 46.9117C49.6445 46.9175 49.6566 46.9265 49.6662 46.9379C49.8266 47.1626 50.0335 47.3504 50.2728 47.4883C50.5121 47.6262 50.7782 47.7112 51.0532 47.7374C51.5961 47.8338 52.1556 47.7498 52.6462 47.4981C52.8976 47.3746 53.1127 47.1878 53.27 46.956C53.2805 46.9414 53.2941 46.9292 53.3098 46.9203C53.3255 46.9114 53.3429 46.906 53.3609 46.9045C53.5456 46.9379 53.7304 46.9803 53.9151 47.0166V49.9996H49.0332Z" fill="#0061BB"/>
<path d="M49.1175 44.1953C50.6851 44.3922 52.2712 44.3922 53.8389 44.1953C53.8389 44.3134 53.8237 44.4255 53.8086 44.5375C53.7388 45.1772 53.4758 45.7804 53.0545 46.2668C52.8646 46.502 52.6244 46.6917 52.3517 46.822C52.0789 46.9524 51.7805 47.02 51.4782 47.02C51.1759 47.02 50.8774 46.9524 50.6046 46.822C50.3319 46.6917 50.0918 46.502 49.9018 46.2668C49.4104 45.7032 49.1319 44.9853 49.1144 44.2377C49.1138 44.2235 49.1148 44.2093 49.1175 44.1953Z" fill="#0061BB"/>
<path d="M54.9238 47.5225C55.3364 47.7902 55.676 48.1561 55.9123 48.5874C56.1486 49.0187 56.2741 49.5019 56.2776 49.9937H54.9238V47.5225Z" fill="#0061BB"/>
<path d="M48.0381 49.9997H46.6935C46.539 49.3032 47.3234 47.8556 48.0381 47.5225V49.9997Z" fill="#0061BB"/>
<defs>
<filter id="filter0_d_158_213" x="0" y="0" width="77.3271" height="77.3271" filterUnits="userSpaceOnUse" color-interpolation-filters="sRGB">
<feFlood flood-opacity="0" result="BackgroundImageFix"/>
<feColorMatrix in="SourceAlpha" type="matrix" values="0 0 0 0 0 0 0 0 0 0 0 0 0 0 0 0 0 0 127 0" result="hardAlpha"/>
<feOffset/>
<feGaussianBlur stdDeviation="7.5"/>
<feComposite in2="hardAlpha" operator="out"/>
<feColorMatrix type="matrix" values="0 0 0 0 0 0 0 0 0 0 0 0 0 0 0 0 0 0 0.25 0"/>
<feBlend mode="normal" in2="BackgroundImageFix" result="effect1_dropShadow_158_213"/>
<feBlend mode="normal" in="SourceGraphic" in2="effect1_dropShadow_158_213" result="shape"/>
</filter>
</defs>
</svg>
