<svg width="78" height="78" viewBox="0 0 78 78" fill="none" xmlns="http://www.w3.org/2000/svg">
<g filter="url(#filter0_d_158_189)">
<path d="M38.6636 62.3271C51.7326 62.3271 62.3271 51.7326 62.3271 38.6636C62.3271 25.5945 51.7326 15 38.6636 15C25.5945 15 15 25.5945 15 38.6636C15 51.7326 25.5945 62.3271 38.6636 62.3271Z" fill="white"/>
</g>
<path d="M24.6386 33.7944L24.7658 34.5031C24.7992 34.7 24.8325 34.8968 24.8718 35.0937C24.893 35.2148 24.9778 35.2814 25.0778 35.2602C25.1021 35.2544 25.125 35.2436 25.1449 35.2284C25.1648 35.2132 25.1813 35.1939 25.1933 35.1719C25.2053 35.15 25.2125 35.1257 25.2145 35.1007C25.2166 35.0758 25.2133 35.0507 25.205 35.027C25.1293 34.5788 25.0505 34.1185 24.9688 33.6854C24.958 33.6475 24.9561 33.6076 24.9634 33.5689C24.9706 33.5302 24.9868 33.4936 25.0106 33.4622C25.0344 33.4308 25.0651 33.4053 25.1004 33.3878C25.1358 33.3703 25.1747 33.3613 25.2141 33.3614C25.6017 33.3614 25.9924 33.3614 26.38 33.3614C26.4196 33.3606 26.4589 33.3693 26.4945 33.3866C26.5302 33.4039 26.5612 33.4294 26.5851 33.461C26.609 33.4926 26.6252 33.5294 26.6321 33.5684C26.6391 33.6074 26.6368 33.6475 26.6253 33.6854L26.3891 35.024C26.3679 35.1512 26.4224 35.2451 26.5254 35.2602C26.6283 35.2754 26.7041 35.2118 26.7253 35.0846C26.798 34.6939 26.8646 34.3032 26.9342 33.9156C26.9342 33.8762 26.9342 33.8368 26.9584 33.7914C27.2434 33.932 27.4984 34.1263 27.7095 34.3638C28.1194 34.8104 28.3539 35.3902 28.3697 35.9961C28.3697 36.0567 28.3697 36.09 28.4485 36.1112C28.5234 36.1318 28.5895 36.1765 28.6365 36.2383C28.6836 36.3001 28.709 36.3757 28.7089 36.4534C28.7098 36.5277 28.6863 36.6003 28.642 36.6599C28.5977 36.7195 28.535 36.763 28.4636 36.7835C28.3187 36.823 28.1709 36.8504 28.0215 36.8653C26.8007 37.0162 25.5678 37.0415 24.3419 36.941C23.9966 36.9138 23.6544 36.8683 23.3091 36.8259C23.235 36.8175 23.1626 36.7981 23.0941 36.7684C23.0303 36.7426 22.9761 36.6975 22.9392 36.6394C22.9023 36.5813 22.8844 36.5131 22.8882 36.4444C22.886 36.3718 22.908 36.3006 22.9508 36.2419C22.9936 36.1832 23.0547 36.1404 23.1244 36.1203C23.2153 36.093 23.2213 36.0446 23.2274 35.9689C23.2449 35.5214 23.3801 35.0864 23.6194 34.7078C23.8587 34.3293 24.1935 34.0205 24.5902 33.8126L24.6386 33.7944Z" fill="#0061BB"/>
<path d="M23.3613 42.9995V40.0164C23.5461 39.9771 23.7308 39.9377 23.9155 39.9044C23.9303 39.9038 23.945 39.9064 23.9586 39.9122C23.9723 39.918 23.9844 39.9267 23.9943 39.9377C24.1548 40.1625 24.3616 40.3502 24.6009 40.4881C24.8402 40.6261 25.1064 40.711 25.3813 40.7372C25.9242 40.8337 26.4837 40.7497 26.9743 40.498C27.2247 40.3729 27.4393 40.1864 27.5982 39.9559C27.6086 39.9412 27.6222 39.929 27.6379 39.9201C27.6536 39.9112 27.671 39.9059 27.689 39.9044C27.8737 39.9377 28.0585 39.9801 28.2432 40.0164V42.9995H23.3613Z" fill="#0061BB"/>
<path d="M23.4465 37.1953C25.0141 37.3922 26.6002 37.3922 28.1679 37.1953C28.1679 37.3134 28.1679 37.4255 28.1376 37.5375C28.0679 38.1772 27.8048 38.7804 27.3835 39.2668C27.1936 39.502 26.9534 39.6917 26.6807 39.822C26.4079 39.9524 26.1095 40.02 25.8072 40.02C25.5049 40.02 25.2064 39.9524 24.9337 39.822C24.6609 39.6917 24.4208 39.502 24.2309 39.2668C23.7399 38.7026 23.4605 37.9853 23.4404 37.2377C23.4404 37.2377 23.4435 37.2226 23.4465 37.1953Z" fill="#0061BB"/>
<path d="M29.2354 40.5225C29.6487 40.7896 29.989 41.1553 30.2259 41.5867C30.4627 42.0181 30.5886 42.5016 30.5921 42.9937H29.2354V40.5225Z" fill="#0061BB"/>
<path d="M22.3643 42.9997H21.0197C20.8652 42.3032 21.6496 40.8556 22.3643 40.5225V42.9997Z" fill="#0061BB"/>
<path d="M37.4787 33.7944L37.6029 34.5031C37.6393 34.6999 37.6726 34.8968 37.7089 35.0936C37.7331 35.2148 37.8179 35.2814 37.9179 35.2602C38.0178 35.239 38.0663 35.1512 38.0451 35.027L37.8088 33.6854C37.7981 33.6477 37.7962 33.6081 37.8033 33.5696C37.8104 33.5311 37.8263 33.4947 37.8498 33.4634C37.8732 33.432 37.9036 33.4065 37.9385 33.3888C37.9734 33.3711 38.012 33.3617 38.0511 33.3613C38.4418 33.3613 38.8294 33.3613 39.2201 33.3613C39.2595 33.3612 39.2984 33.3703 39.3337 33.3878C39.369 33.4053 39.3998 33.4308 39.4236 33.4622C39.4474 33.4936 39.4635 33.5301 39.4708 33.5688C39.478 33.6076 39.4762 33.6475 39.4654 33.6854L39.2292 35.024C39.205 35.1512 39.2595 35.245 39.3655 35.2602C39.4715 35.2753 39.5411 35.2117 39.5654 35.0845L39.7743 33.9155C39.7743 33.8762 39.7743 33.8368 39.7985 33.7914C40.0835 33.9319 40.3385 34.1263 40.5496 34.3638C40.9584 34.8111 41.1927 35.3904 41.2098 35.9961C41.2098 36.0567 41.2098 36.09 41.2886 36.1112C41.3635 36.1314 41.4294 36.1761 41.4761 36.2381C41.5227 36.3 41.5473 36.3758 41.546 36.4534C41.5481 36.5275 41.5254 36.6003 41.4815 36.6601C41.4377 36.7199 41.3751 36.7633 41.3037 36.7835C41.1588 36.823 41.0109 36.8503 40.8615 36.8653C39.6408 37.0161 38.4079 37.0415 37.182 36.941C36.8367 36.9137 36.4915 36.8683 36.1492 36.8259C36.0751 36.8175 36.0027 36.7981 35.9342 36.7684C35.8698 36.7433 35.8151 36.6984 35.7781 36.6401C35.741 36.5818 35.7236 36.5132 35.7283 36.4443C35.7261 36.3717 35.7481 36.3005 35.7909 36.2418C35.8337 36.1832 35.8948 36.1404 35.9645 36.1203C36.0554 36.093 36.0614 36.0445 36.0645 35.9688C36.0826 35.5215 36.2181 35.0868 36.4573 34.7083C36.6965 34.3298 37.031 34.0209 37.4273 33.8126L37.4787 33.7944Z" fill="#0061BB"/>
<path d="M36.1953 42.9995V40.0164C36.38 39.9771 36.5648 39.9377 36.7525 39.9044C36.7673 39.9038 36.782 39.9064 36.7957 39.9122C36.8093 39.918 36.8214 39.9267 36.8313 39.9377C36.9912 40.1624 37.1975 40.3501 37.4363 40.4881C37.6751 40.626 37.9408 40.711 38.2153 40.7372C38.7592 40.8337 39.3196 40.7497 39.8113 40.498C40.0617 40.3729 40.2764 40.1864 40.4352 39.9559C40.4447 39.941 40.4576 39.9285 40.4729 39.9196C40.4882 39.9106 40.5053 39.9054 40.523 39.9044C40.7108 39.9377 40.8925 39.9801 41.0802 40.0164V42.9995H36.1953Z" fill="#0061BB"/>
<path d="M36.2814 37.1953C37.849 37.3922 39.4351 37.3922 41.0027 37.1953C41.0027 37.3134 41.0027 37.4255 40.9755 37.5375C40.9047 38.1775 40.6406 38.7807 40.2184 39.2668C40.0291 39.5024 39.7893 39.6926 39.5168 39.8232C39.2442 39.9539 38.9458 40.0217 38.6436 40.0217C38.3413 40.0217 38.0429 39.9539 37.7704 39.8232C37.4978 39.6926 37.258 39.5024 37.0688 39.2668C36.5765 38.7034 36.2968 37.9856 36.2783 37.2377C36.2783 37.2377 36.2814 37.2226 36.2814 37.1953Z" fill="#0061BB"/>
<path d="M42.0742 40.5225C42.4868 40.7904 42.8266 41.1563 43.0633 41.5875C43.3 42.0187 43.4264 42.5018 43.431 42.9937H42.0742V40.5225Z" fill="#0061BB"/>
<path d="M35.2002 42.9997H33.8556C33.7011 42.3032 34.4855 40.8556 35.2002 40.5225V42.9997Z" fill="#0061BB"/>
<path d="M50.318 33.7944L50.4422 34.5031C50.4785 34.7 50.5118 34.8968 50.5482 35.0937C50.5491 35.1187 50.5554 35.1433 50.5666 35.1658C50.5778 35.1882 50.5937 35.208 50.6133 35.2238C50.6328 35.2396 50.6555 35.251 50.6798 35.2573C50.7041 35.2636 50.7294 35.2646 50.7541 35.2602C50.8571 35.239 50.9056 35.1512 50.8844 35.027L50.6481 33.6854C50.6368 33.6477 50.6344 33.6079 50.6412 33.5691C50.648 33.5304 50.6639 33.4937 50.6874 33.4622C50.711 33.4307 50.7417 33.4051 50.7769 33.3876C50.8122 33.3701 50.851 33.3611 50.8904 33.3614C51.2781 33.3614 51.6687 33.3614 52.0564 33.3614C52.096 33.3606 52.1352 33.3693 52.1709 33.3866C52.2065 33.4039 52.2376 33.4294 52.2615 33.461C52.2854 33.4926 52.3015 33.5294 52.3085 33.5684C52.3155 33.6074 52.3131 33.6475 52.3017 33.6854L52.0655 35.024C52.0443 35.1512 52.0988 35.2451 52.2048 35.2602C52.3108 35.2754 52.3804 35.2118 52.4016 35.0846C52.4743 34.6939 52.5409 34.3032 52.6106 33.9156C52.6106 33.8762 52.6257 33.8368 52.6348 33.7914C52.9203 33.9311 53.1755 34.1256 53.3859 34.3638C53.7955 34.8108 54.0309 35.3901 54.0491 35.9961C54.0491 36.0567 54.0491 36.09 54.1248 36.1112C54.2003 36.1309 54.267 36.1753 54.3142 36.2373C54.3614 36.2994 54.3864 36.3755 54.3853 36.4534C54.3867 36.5279 54.3634 36.6006 54.319 36.6604C54.2746 36.7201 54.2116 36.7634 54.14 36.7835C53.9997 36.8183 53.8569 36.8415 53.7129 36.8532C52.4912 37.004 51.2572 37.0294 50.0303 36.9289C49.6881 36.9017 49.3429 36.8562 48.9976 36.8138C48.9236 36.805 48.8512 36.7856 48.7826 36.7563C48.7188 36.7305 48.6646 36.6854 48.6277 36.6273C48.5907 36.5692 48.5729 36.501 48.5767 36.4322C48.575 36.3598 48.5972 36.2888 48.6399 36.2302C48.6826 36.1717 48.7434 36.1288 48.8129 36.1082C48.9037 36.0809 48.9098 36.0325 48.9158 35.9568C48.934 35.5094 49.0695 35.0747 49.3087 34.6962C49.5479 34.3178 49.8824 34.0089 50.2787 33.8005L50.318 33.7944Z" fill="#0061BB"/>
<path d="M49.0332 42.9996V40.0166C49.2179 39.9772 49.4027 39.9379 49.5874 39.9045C49.6022 39.9035 49.6171 39.9059 49.6308 39.9117C49.6445 39.9175 49.6566 39.9265 49.6662 39.9379C49.8266 40.1626 50.0335 40.3504 50.2728 40.4883C50.5121 40.6262 50.7782 40.7112 51.0532 40.7374C51.5961 40.8338 52.1556 40.7498 52.6462 40.4981C52.8976 40.3746 53.1127 40.1878 53.27 39.956C53.2805 39.9414 53.2941 39.9292 53.3098 39.9203C53.3255 39.9114 53.3429 39.906 53.3609 39.9045C53.5456 39.9379 53.7304 39.9803 53.9151 40.0166V42.9996H49.0332Z" fill="#0061BB"/>
<path d="M49.1175 37.1953C50.6851 37.3922 52.2712 37.3922 53.8389 37.1953C53.8389 37.3134 53.8237 37.4255 53.8086 37.5375C53.7388 38.1772 53.4758 38.7804 53.0545 39.2668C52.8646 39.502 52.6244 39.6917 52.3517 39.822C52.0789 39.9524 51.7805 40.02 51.4782 40.02C51.1759 40.02 50.8774 39.9524 50.6046 39.822C50.3319 39.6917 50.0918 39.502 49.9018 39.2668C49.4104 38.7032 49.1319 37.9853 49.1144 37.2377C49.1138 37.2235 49.1148 37.2093 49.1175 37.1953Z" fill="#0061BB"/>
<path d="M54.9238 40.5225C55.3364 40.7902 55.676 41.1561 55.9123 41.5874C56.1486 42.0187 56.2741 42.5019 56.2776 42.9937H54.9238V40.5225Z" fill="#0061BB"/>
<path d="M48.0381 42.9997H46.6935C46.539 42.3032 47.3234 40.8556 48.0381 40.5225V42.9997Z" fill="#0061BB"/>
<defs>
<filter id="filter0_d_158_189" x="0" y="0" width="77.3271" height="77.3271" filterUnits="userSpaceOnUse" color-interpolation-filters="sRGB">
<feFlood flood-opacity="0" result="BackgroundImageFix"/>
<feColorMatrix in="SourceAlpha" type="matrix" values="0 0 0 0 0 0 0 0 0 0 0 0 0 0 0 0 0 0 127 0" result="hardAlpha"/>
<feOffset/>
<feGaussianBlur stdDeviation="7.5"/>
<feComposite in2="hardAlpha" operator="out"/>
<feColorMatrix type="matrix" values="0 0 0 0 0 0 0 0 0 0 0 0 0 0 0 0 0 0 0.25 0"/>
<feBlend mode="normal" in2="BackgroundImageFix" result="effect1_dropShadow_158_189"/>
<feBlend mode="normal" in="SourceGraphic" in2="effect1_dropShadow_158_189" result="shape"/>
</filter>
</defs>
</svg>
