<svg width="29" height="29" viewBox="0 0 29 29" fill="none" xmlns="http://www.w3.org/2000/svg">
<path d="M1.45001 27.55H7.39975e-06C7.39975e-06 28.3508 0.649201 29 1.45001 29V27.55ZM27.55 27.55V29C28.3508 29 29 28.3508 29 27.55H27.55ZM5.8 5.80001C4.9992 5.80001 4.35 6.4492 4.35 7.25001C4.35 8.05081 4.9992 8.7 5.8 8.7V5.80001ZM7.25 8.7C8.05081 8.7 8.7 8.05081 8.7 7.25001C8.7 6.4492 8.05081 5.80001 7.25 5.80001V8.7ZM13.05 5.80001C12.2492 5.80001 11.6 6.4492 11.6 7.25001C11.6 8.05081 12.2492 8.7 13.05 8.7V5.80001ZM14.5 8.7C15.3008 8.7 15.95 8.05081 15.95 7.25001C15.95 6.4492 15.3008 5.80001 14.5 5.80001V8.7ZM5.8 10.15C4.9992 10.15 4.35 10.7992 4.35 11.6C4.35 12.4008 4.9992 13.05 5.8 13.05V10.15ZM7.25 13.05C8.05081 13.05 8.7 12.4008 8.7 11.6C8.7 10.7992 8.05081 10.15 7.25 10.15V13.05ZM13.05 10.15C12.2492 10.15 11.6 10.7992 11.6 11.6C11.6 12.4008 12.2492 13.05 13.05 13.05V10.15ZM14.5 13.05C15.3008 13.05 15.95 12.4008 15.95 11.6C15.95 10.7992 15.3008 10.15 14.5 10.15V13.05ZM5.8 14.5C4.9992 14.5 4.35 15.1492 4.35 15.95C4.35 16.7508 4.9992 17.4 5.8 17.4V14.5ZM7.25 17.4C8.05081 17.4 8.7 16.7508 8.7 15.95C8.7 15.1492 8.05081 14.5 7.25 14.5V17.4ZM13.05 14.5C12.2492 14.5 11.6 15.1492 11.6 15.95C11.6 16.7508 12.2492 17.4 13.05 17.4V14.5ZM14.5 17.4C15.3008 17.4 15.95 16.7508 15.95 15.95C15.95 15.1492 15.3008 14.5 14.5 14.5V17.4ZM13.05 27.55V29H14.5V27.55H13.05ZM7.25 27.55H5.8V29H7.25V27.55ZM23.2 11.6C22.3992 11.6 21.75 12.2492 21.75 13.05C21.75 13.8508 22.3992 14.5 23.2 14.5V11.6ZM23.2145 14.5C24.0153 14.5 24.6645 13.8508 24.6645 13.05C24.6645 12.2492 24.0153 11.6 23.2145 11.6V14.5ZM23.2 15.95C22.3992 15.95 21.75 16.5992 21.75 17.4C21.75 18.2008 22.3992 18.85 23.2 18.85V15.95ZM23.2145 18.85C24.0153 18.85 24.6645 18.2008 24.6645 17.4C24.6645 16.5992 24.0153 15.95 23.2145 15.95V18.85ZM23.2 20.3C22.3992 20.3 21.75 20.9492 21.75 21.75C21.75 22.5508 22.3992 23.2 23.2 23.2V20.3ZM23.2145 23.2C24.0153 23.2 24.6645 22.5508 24.6645 21.75C24.6645 20.9492 24.0153 20.3 23.2145 20.3V23.2ZM7.39975e-06 3.77001V27.55H2.90001V3.77001H7.39975e-06ZM3.77 2.90001H16.53V7.39975e-06H3.77V2.90001ZM17.4 3.77001V7.25001H20.3V3.77001H17.4ZM17.4 7.25001V27.55H20.3V7.25001H17.4ZM1.45001 29H18.85V26.1H1.45001V29ZM18.85 29H27.55V26.1H18.85V29ZM26.1 9.57001V27.55H29V9.57001H26.1ZM18.85 8.7H25.23V5.80001H18.85V8.7ZM5.8 8.7H7.25V5.80001H5.8V8.7ZM13.05 8.7H14.5V5.80001H13.05V8.7ZM5.8 13.05H7.25V10.15H5.8V13.05ZM13.05 13.05H14.5V10.15H13.05V13.05ZM5.8 17.4H7.25V14.5H5.8V17.4ZM13.05 17.4H14.5V14.5H13.05V17.4ZM11.6 23.2V27.55H14.5V23.2H11.6ZM13.05 26.1H7.25V29H13.05V26.1ZM8.7 27.55V23.2H5.8V27.55H8.7ZM10.15 21.75C10.9508 21.75 11.6 22.3992 11.6 23.2H14.5C14.5 20.7975 12.5525 18.85 10.15 18.85V21.75ZM10.15 18.85C7.74757 18.85 5.8 20.7975 5.8 23.2H8.7C8.7 22.3992 9.3492 21.75 10.15 21.75V18.85ZM23.2 14.5H23.2145V11.6H23.2V14.5ZM23.2 18.85H23.2145V15.95H23.2V18.85ZM23.2 23.2H23.2145V20.3H23.2V23.2ZM29 9.57001C29 9.18789 29.0012 8.81411 28.9755 8.49957C28.9484 8.16812 28.8844 7.77699 28.6839 7.38343L26.1 8.7C26.0575 8.61662 26.0726 8.5836 26.0851 8.73572C26.0988 8.90477 26.1 9.14004 26.1 9.57001H29ZM25.23 8.7C25.6599 8.7 25.8953 8.70114 26.0643 8.71494C26.2164 8.72737 26.1834 8.74249 26.1 8.7L27.4166 6.11609C27.0231 5.91556 26.6319 5.85166 26.3004 5.82458C25.9859 5.79887 25.6121 5.80001 25.23 5.80001V8.7ZM28.6839 7.38343C28.4059 6.83777 27.9622 6.39411 27.4166 6.11609L26.1 8.7L28.6839 7.38343ZM16.53 2.90001C16.9599 2.90001 17.1953 2.90114 17.3643 2.91494C17.5164 2.92737 17.4834 2.94249 17.4 2.90001L18.7166 0.316093C18.3231 0.115558 17.9319 0.0516562 17.6004 0.0245847C17.2859 -0.00112376 16.9121 7.39975e-06 16.53 7.39975e-06V2.90001ZM20.3 3.77001C20.3 3.38789 20.3012 3.01411 20.2755 2.69957C20.2484 2.36812 20.1844 1.97699 19.9839 1.58344L17.4 2.90001C17.3575 2.81662 17.3726 2.7836 17.3851 2.93572C17.3988 3.10478 17.4 3.34004 17.4 3.77001H20.3ZM17.4 2.90001L19.9839 1.58344C19.7059 1.03777 19.2622 0.594116 18.7166 0.316093L17.4 2.90001ZM2.90001 3.77001C2.90001 3.34004 2.90114 3.10478 2.91494 2.93572C2.92737 2.7836 2.94249 2.81662 2.90001 2.90001L0.316093 1.58344C0.115558 1.97699 0.0516562 2.36812 0.0245847 2.69957C-0.00112375 3.01411 7.39975e-06 3.38789 7.39975e-06 3.77001H2.90001ZM3.77 7.39975e-06C3.38789 7.39975e-06 3.01411 -0.00112376 2.69957 0.0245847C2.36812 0.0516562 1.97699 0.115558 1.58344 0.316093L2.90001 2.90001C2.81662 2.94249 2.7836 2.92737 2.93572 2.91494C3.10477 2.90114 3.34004 2.90001 3.77 2.90001V7.39975e-06ZM2.90001 2.90001L1.58344 0.316093C1.03776 0.594116 0.594115 1.03776 0.316093 1.58344L2.90001 2.90001Z" fill="#0061BB"/>
</svg>
